<?xml version="1.0" ?><svg viewBox="0 0 64 64" xmlns="http://www.w3.org/2000/svg"><defs><style>.cls-1{fill:#FFFFFF;}</style></defs><g data-name="Layer 20" id="Layer_20"><path class="cls-1" d="M48,37H16a7,7,0,0,0-7,7V57a3,3,0,0,0,3,3H52a3,3,0,0,0,3-3V44A7,7,0,0,0,48,37Zm5,20a1,1,0,0,1-1,1H12a1,1,0,0,1-1-1V44a5,5,0,0,1,5-5H48a5,5,0,0,1,5,5ZM50,17A19,19,0,0,0,14,17a5.12,5.12,0,0,0-5,5v4a5.14,5.14,0,0,0,5.27,5H16a3,3,0,0,0,3-3V20a3,3,0,0,0-2.91-3,17,17,0,0,1,31.82,0A3,3,0,0,0,45,20v8a3,3,0,0,0,3,3h1.73A5.14,5.14,0,0,0,55,26V22A5.12,5.12,0,0,0,50,17ZM17,20v8a1,1,0,0,1-1,1H14.27A3.15,3.15,0,0,1,11,26V22a3.15,3.15,0,0,1,3.27-3H16A1,1,0,0,1,17,20Zm36,6a3.15,3.15,0,0,1-3.27,3H48a1,1,0,0,1-1-1V20a1,1,0,0,1,1-1h1.73A3.15,3.15,0,0,1,53,22ZM43,24A11,11,0,1,0,32,35,11,11,0,0,0,43,24ZM23,24a9,9,0,1,1,9,9A9,9,0,0,1,23,24Z"/></g></svg>